<?xml version="1.0" encoding="UTF-8" standalone="no"?>
<!DOCTYPE svg PUBLIC "-//W3C//DTD SVG 1.1//EN" "http://www.w3.org/Graphics/SVG/1.1/DTD/svg11.dtd">
<!-- Generated by graphviz version 2.40.1 (20161225.0304)
 -->
<!-- Title: G Pages: 1 -->
<svg width="1802pt" height="548pt" viewBox="0.00 0.00 1801.98 548.00" xmlns="http://www.w3.org/2000/svg" xmlns:xlink="http://www.w3.org/1999/xlink">
<g id="graph0" class="graph" transform="scale(1 1) rotate(0) translate(4 544)">
<title>G</title>
<polygon fill="#ffffff" stroke="transparent" points="-4,4 -4,-544 1797.9788,-544 1797.9788,4 -4,4"/>
<!-- player100 -->
<g id="node1" class="node">
<title>player100</title>
<ellipse fill="none" stroke="#000000" cx="1006.3281" cy="-234" rx="49.802" ry="18"/>
<text text-anchor="middle" x="1006.3281" y="-229.8" font-family="Times,serif" font-size="14.00" fill="#000000">player100</text>
</g>
<!-- player101 -->
<g id="node2" class="node">
<title>player101</title>
<ellipse fill="none" stroke="#000000" cx="1101.3281" cy="-162" rx="49.802" ry="18"/>
<text text-anchor="middle" x="1101.3281" y="-157.8" font-family="Times,serif" font-size="14.00" fill="#000000">player101</text>
</g>
<!-- player100&#45;&gt;player101 -->
<g id="edge1" class="edge">
<title>player100-&gt;player101</title>
<path fill="none" stroke="#000000" d="M1023.0018,-216.937C1035.1492,-206.9255 1051.8307,-194.1824 1066.736,-183.4902"/>
<polygon fill="#000000" stroke="#000000" points="1069.1118,-186.0971 1075.2591,-177.4679 1065.0723,-180.3802 1069.1118,-186.0971"/>
</g>
<!-- player125 -->
<g id="node3" class="node">
<title>player125</title>
<ellipse fill="none" stroke="#000000" cx="976.3281" cy="-90" rx="49.802" ry="18"/>
<text text-anchor="middle" x="976.3281" y="-85.8" font-family="Times,serif" font-size="14.00" fill="#000000">player125</text>
</g>
<!-- player100&#45;&gt;player125 -->
<g id="edge2" class="edge">
<title>player100-&gt;player125</title>
<path fill="none" stroke="#000000" d="M997.9454,-216.0535C990.3311,-191.4774 980.8071,-147.1008 976.7013,-118.0974"/>
<polygon fill="#000000" stroke="#000000" points="980.1734,-117.6551 975.4474,-108.1727 973.2286,-118.5326 980.1734,-117.6551"/>
</g>
<!-- player101&#45;&gt;player100 -->
<g id="edge3" class="edge">
<title>player101-&gt;player100</title>
<path fill="none" stroke="#000000" d="M1084.5053,-179.1857C1072.3549,-189.1916 1055.7211,-201.8945 1040.8618,-212.5516"/>
<polygon fill="#000000" stroke="#000000" points="1038.5132,-209.9255 1032.3653,-218.5542 1042.5522,-215.6427 1038.5132,-209.9255"/>
</g>
<!-- player101&#45;&gt;player125 -->
<g id="edge5" class="edge">
<title>player101-&gt;player125</title>
<path fill="none" stroke="#000000" d="M1074.8188,-146.7307C1056.4232,-136.1348 1031.7175,-121.9043 1011.6524,-110.3468"/>
<polygon fill="#000000" stroke="#000000" points="1013.2114,-107.2057 1002.7992,-105.2473 1009.7175,-113.2715 1013.2114,-107.2057"/>
</g>
<!-- player102 -->
<g id="node4" class="node">
<title>player102</title>
<ellipse fill="none" stroke="#000000" cx="1101.3281" cy="-90" rx="49.802" ry="18"/>
<text text-anchor="middle" x="1101.3281" y="-85.8" font-family="Times,serif" font-size="14.00" fill="#000000">player102</text>
</g>
<!-- player101&#45;&gt;player102 -->
<g id="edge4" class="edge">
<title>player101-&gt;player102</title>
<path fill="none" stroke="#000000" d="M1095.3757,-143.8314C1094.6137,-136.0125 1094.3977,-126.6923 1094.7276,-118.0221"/>
<polygon fill="#000000" stroke="#000000" points="1098.2285,-118.1239 1095.4008,-107.9134 1091.244,-117.6587 1098.2285,-118.1239"/>
</g>
<!-- player125&#45;&gt;player100 -->
<g id="edge41" class="edge">
<title>player125-&gt;player100</title>
<path fill="none" stroke="#000000" d="M984.755,-108.0896C992.3243,-132.5727 1001.763,-176.5174 1005.8935,-205.4713"/>
<polygon fill="#000000" stroke="#000000" points="1002.4685,-206.2835 1007.2017,-215.7623 1009.4126,-205.4007 1002.4685,-206.2835"/>
</g>
<!-- player102&#45;&gt;player100 -->
<g id="edge6" class="edge">
<title>player102-&gt;player100</title>
<path fill="none" stroke="#000000" d="M1079.1235,-106.2678C1066.9578,-116.0928 1052.359,-129.496 1042.3281,-144 1029.1631,-163.0357 1019.7532,-187.5938 1013.8633,-206.2467"/>
<polygon fill="#000000" stroke="#000000" points="1010.4797,-205.345 1010.9518,-215.9293 1017.1832,-207.3608 1010.4797,-205.345"/>
</g>
<!-- player102&#45;&gt;player101 -->
<g id="edge7" class="edge">
<title>player102-&gt;player101</title>
<path fill="none" stroke="#000000" d="M1107.2554,-107.9134C1108.0292,-115.6993 1108.2572,-125.01 1107.9391,-133.6941"/>
<polygon fill="#000000" stroke="#000000" points="1104.4363,-133.6254 1107.2805,-143.8314 1111.4216,-134.0794 1104.4363,-133.6254"/>
</g>
<!-- player103 -->
<g id="node5" class="node">
<title>player103</title>
<ellipse fill="none" stroke="#000000" cx="1235.3281" cy="-162" rx="49.802" ry="18"/>
<text text-anchor="middle" x="1235.3281" y="-157.8" font-family="Times,serif" font-size="14.00" fill="#000000">player103</text>
</g>
<!-- player103&#45;&gt;player102 -->
<g id="edge8" class="edge">
<title>player103-&gt;player102</title>
<path fill="none" stroke="#000000" d="M1207.2373,-146.9064C1187.2262,-136.1542 1160.1285,-121.5943 1138.3525,-109.8937"/>
<polygon fill="#000000" stroke="#000000" points="1139.8475,-106.7238 1129.3819,-105.0737 1136.5342,-112.89 1139.8475,-106.7238"/>
</g>
<!-- player104 -->
<g id="node6" class="node">
<title>player104</title>
<ellipse fill="none" stroke="#000000" cx="733.3281" cy="-378" rx="49.802" ry="18"/>
<text text-anchor="middle" x="733.3281" y="-373.8" font-family="Times,serif" font-size="14.00" fill="#000000">player104</text>
</g>
<!-- player104&#45;&gt;player100 -->
<g id="edge9" class="edge">
<title>player104-&gt;player100</title>
<path fill="none" stroke="#000000" d="M777.1722,-369.4646C812.9859,-361.2751 864.0798,-346.7478 904.3281,-324 920.8393,-314.6681 956.7836,-281.6181 981.2764,-258.2854"/>
<polygon fill="#000000" stroke="#000000" points="983.9849,-260.5377 988.7871,-251.0937 979.1436,-255.4818 983.9849,-260.5377"/>
</g>
<!-- player104&#45;&gt;player101 -->
<g id="edge10" class="edge">
<title>player104-&gt;player101</title>
<path fill="none" stroke="#000000" d="M775.5118,-368.393C804.6515,-360.1985 843.0924,-346.1541 871.3281,-324 917.5046,-287.7693 900.5116,-251.3999 947.3281,-216 976.4886,-193.9505 1015.378,-180.4096 1046.7802,-172.4017"/>
<polygon fill="#000000" stroke="#000000" points="1047.8006,-175.7557 1056.6908,-169.9924 1046.147,-168.9538 1047.8006,-175.7557"/>
</g>
<!-- player105 -->
<g id="node7" class="node">
<title>player105</title>
<ellipse fill="none" stroke="#000000" cx="695.3281" cy="-306" rx="49.802" ry="18"/>
<text text-anchor="middle" x="695.3281" y="-301.8" font-family="Times,serif" font-size="14.00" fill="#000000">player105</text>
</g>
<!-- player104&#45;&gt;player105 -->
<g id="edge11" class="edge">
<title>player104-&gt;player105</title>
<path fill="none" stroke="#000000" d="M718.2511,-360.5708C713.067,-352.3544 707.5631,-342.3608 703.1075,-333.1821"/>
<polygon fill="#000000" stroke="#000000" points="706.2545,-331.648 698.9011,-324.0206 699.893,-334.5689 706.2545,-331.648"/>
</g>
<!-- player105&#45;&gt;player100 -->
<g id="edge12" class="edge">
<title>player105-&gt;player100</title>
<path fill="none" stroke="#000000" d="M732.3136,-293.9738C739.2638,-291.87 746.4936,-289.786 753.3281,-288 821.1567,-270.2752 900.331,-254.0891 951.7974,-244.1551"/>
<polygon fill="#000000" stroke="#000000" points="952.5485,-247.5749 961.7097,-242.2531 951.2293,-240.7004 952.5485,-247.5749"/>
</g>
<!-- player105&#45;&gt;player104 -->
<g id="edge13" class="edge">
<title>player105-&gt;player104</title>
<path fill="none" stroke="#000000" d="M710.3978,-323.4177C715.5605,-331.5991 721.0411,-341.5445 725.4881,-350.6932"/>
<polygon fill="#000000" stroke="#000000" points="722.3328,-352.209 729.6915,-359.8314 728.6923,-349.2837 722.3328,-352.209"/>
</g>
<!-- player116 -->
<g id="node8" class="node">
<title>player116</title>
<ellipse fill="none" stroke="#000000" cx="463.3281" cy="-162" rx="49.802" ry="18"/>
<text text-anchor="middle" x="463.3281" y="-157.8" font-family="Times,serif" font-size="14.00" fill="#000000">player116</text>
</g>
<!-- player105&#45;&gt;player116 -->
<g id="edge14" class="edge">
<title>player105-&gt;player116</title>
<path fill="none" stroke="#000000" d="M671.2369,-290.091C643.4905,-271.8669 596.4392,-241.2652 555.3281,-216 536.9556,-204.7091 516.2636,-192.5179 499.1628,-182.5813"/>
<polygon fill="#000000" stroke="#000000" points="500.4767,-179.2976 490.0694,-177.3129 496.9675,-185.3545 500.4767,-179.2976"/>
</g>
<!-- player141 -->
<g id="node21" class="node">
<title>player141</title>
<ellipse fill="none" stroke="#000000" cx="463.3281" cy="-90" rx="49.802" ry="18"/>
<text text-anchor="middle" x="463.3281" y="-85.8" font-family="Times,serif" font-size="14.00" fill="#000000">player141</text>
</g>
<!-- player116&#45;&gt;player141 -->
<g id="edge34" class="edge">
<title>player116-&gt;player141</title>
<path fill="none" stroke="#000000" d="M463.3281,-143.8314C463.3281,-136.131 463.3281,-126.9743 463.3281,-118.4166"/>
<polygon fill="#000000" stroke="#000000" points="466.8282,-118.4132 463.3281,-108.4133 459.8282,-118.4133 466.8282,-118.4132"/>
</g>
<!-- player107 -->
<g id="node9" class="node">
<title>player107</title>
<ellipse fill="none" stroke="#000000" cx="1044.3281" cy="-306" rx="49.802" ry="18"/>
<text text-anchor="middle" x="1044.3281" y="-301.8" font-family="Times,serif" font-size="14.00" fill="#000000">player107</text>
</g>
<!-- player107&#45;&gt;player100 -->
<g id="edge15" class="edge">
<title>player107-&gt;player100</title>
<path fill="none" stroke="#000000" d="M1034.9348,-288.2022C1030.5958,-279.981 1025.3497,-270.041 1020.5412,-260.9301"/>
<polygon fill="#000000" stroke="#000000" points="1023.508,-259.0527 1015.745,-251.8425 1017.3173,-262.3201 1023.508,-259.0527"/>
</g>
<!-- player108 -->
<g id="node10" class="node">
<title>player108</title>
<ellipse fill="none" stroke="#000000" cx="1317.3281" cy="-306" rx="49.802" ry="18"/>
<text text-anchor="middle" x="1317.3281" y="-301.8" font-family="Times,serif" font-size="14.00" fill="#000000">player108</text>
</g>
<!-- player108&#45;&gt;player100 -->
<g id="edge16" class="edge">
<title>player108-&gt;player100</title>
<path fill="none" stroke="#000000" d="M1280.3425,-293.9738C1273.3924,-291.87 1266.1625,-289.786 1259.3281,-288 1191.4994,-270.2752 1112.3252,-254.0891 1060.8587,-244.1551"/>
<polygon fill="#000000" stroke="#000000" points="1061.4269,-240.7004 1050.9464,-242.2531 1060.1077,-247.5749 1061.4269,-240.7004"/>
</g>
<!-- player108&#45;&gt;player101 -->
<g id="edge17" class="edge">
<title>player108-&gt;player101</title>
<path fill="none" stroke="#000000" d="M1310.0375,-287.8652C1301.0109,-267.5988 1283.7786,-235.1267 1259.3281,-216 1242.2261,-202.6218 1191.0356,-186.4096 1151.5083,-175.2612"/>
<polygon fill="#000000" stroke="#000000" points="1152.3104,-171.8515 1141.7381,-172.5408 1150.4327,-178.595 1152.3104,-171.8515"/>
</g>
<!-- player109 -->
<g id="node11" class="node">
<title>player109</title>
<ellipse fill="none" stroke="#000000" cx="812.3281" cy="-306" rx="49.802" ry="18"/>
<text text-anchor="middle" x="812.3281" y="-301.8" font-family="Times,serif" font-size="14.00" fill="#000000">player109</text>
</g>
<!-- player109&#45;&gt;player100 -->
<g id="edge18" class="edge">
<title>player109-&gt;player100</title>
<path fill="none" stroke="#000000" d="M847.46,-292.9613C879.5978,-281.0339 927.2863,-263.3351 962.0261,-250.442"/>
<polygon fill="#000000" stroke="#000000" points="963.3002,-253.7025 971.4575,-246.9417 960.8645,-247.1399 963.3002,-253.7025"/>
</g>
<!-- player109&#45;&gt;player125 -->
<g id="edge19" class="edge">
<title>player109-&gt;player125</title>
<path fill="none" stroke="#000000" d="M824.5655,-288.2113C837.2503,-269.9114 857.7824,-240.6761 876.3281,-216 903.01,-180.4981 935.1302,-140.483 955.6365,-115.2608"/>
<polygon fill="#000000" stroke="#000000" points="958.5178,-117.2656 962.121,-107.3023 953.091,-112.844 958.5178,-117.2656"/>
</g>
<!-- player113 -->
<g id="node12" class="node">
<title>player113</title>
<ellipse fill="none" stroke="#000000" cx="541.3281" cy="-450" rx="49.802" ry="18"/>
<text text-anchor="middle" x="541.3281" y="-445.8" font-family="Times,serif" font-size="14.00" fill="#000000">player113</text>
</g>
<!-- player113&#45;&gt;player100 -->
<g id="edge20" class="edge">
<title>player113-&gt;player100</title>
<path fill="none" stroke="#000000" d="M590.1014,-446.5379C671.6518,-438.3855 836.9942,-411.4739 941.3281,-324 962.4939,-306.2545 980.3314,-280.1741 991.9344,-260.6509"/>
<polygon fill="#000000" stroke="#000000" points="995.0013,-262.3388 996.9665,-251.9278 988.9379,-258.841 995.0013,-262.3388"/>
</g>
<!-- player113&#45;&gt;player101 -->
<g id="edge21" class="edge">
<title>player113-&gt;player101</title>
<path fill="none" stroke="#000000" d="M590.2502,-446.9264C715.4618,-437.9065 1041.9933,-406.7361 1103.3281,-324 1132.3712,-284.823 1121.156,-224.4023 1110.8926,-189.4849"/>
<polygon fill="#000000" stroke="#000000" points="1114.2341,-188.4434 1107.9207,-179.9351 1107.5503,-190.5235 1114.2341,-188.4434"/>
</g>
<!-- player113&#45;&gt;player125 -->
<g id="edge30" class="edge">
<title>player113-&gt;player125</title>
<path fill="none" stroke="#000000" d="M549.2017,-432.2135C560.3321,-405.4059 579.3281,-352.799 579.3281,-306 579.3281,-306 579.3281,-306 579.3281,-234 579.3281,-162.3688 810.6194,-116.193 920.1215,-98.3455"/>
<polygon fill="#000000" stroke="#000000" points="920.6919,-101.7988 930.0102,-96.7569 919.5816,-94.8874 920.6919,-101.7988"/>
</g>
<!-- player113&#45;&gt;player104 -->
<g id="edge22" class="edge">
<title>player113-&gt;player104</title>
<path fill="none" stroke="#000000" d="M576.0978,-436.9613C607.7684,-425.0849 654.698,-407.4863 689.0414,-394.6075"/>
<polygon fill="#000000" stroke="#000000" points="690.6826,-397.7301 698.817,-390.9417 688.2247,-391.1758 690.6826,-397.7301"/>
</g>
<!-- player113&#45;&gt;player105 -->
<g id="edge23" class="edge">
<title>player113-&gt;player105</title>
<path fill="none" stroke="#000000" d="M559.2952,-433.1995C586.5048,-407.7568 638.2931,-359.3314 669.5274,-330.1253"/>
<polygon fill="#000000" stroke="#000000" points="672.0842,-332.5263 676.998,-323.1398 667.3033,-327.4133 672.0842,-332.5263"/>
</g>
<!-- player113&#45;&gt;player116 -->
<g id="edge25" class="edge">
<title>player113-&gt;player116</title>
<path fill="none" stroke="#000000" d="M540.7571,-431.971C538.9378,-391.7415 531.3885,-292.1939 500.3281,-216 496.274,-206.0551 490.1712,-196.094 484.0846,-187.4838"/>
<polygon fill="#000000" stroke="#000000" points="486.8437,-185.3284 478.0799,-179.3746 481.2181,-189.494 486.8437,-185.3284"/>
</g>
<!-- player106 -->
<g id="node13" class="node">
<title>player106</title>
<ellipse fill="none" stroke="#000000" cx="66.3281" cy="-378" rx="49.802" ry="18"/>
<text text-anchor="middle" x="66.3281" y="-373.8" font-family="Times,serif" font-size="14.00" fill="#000000">player106</text>
</g>
<!-- player113&#45;&gt;player106 -->
<g id="edge24" class="edge">
<title>player113-&gt;player106</title>
<path fill="none" stroke="#000000" d="M492.8656,-445.9052C415.6171,-438.87 260.0449,-422.6196 130.3281,-396 125.0281,-394.9124 119.5233,-393.6196 114.0663,-392.2332"/>
<polygon fill="#000000" stroke="#000000" points="114.9128,-388.8367 104.35,-389.6607 113.1211,-395.6036 114.9128,-388.8367"/>
</g>
<!-- player118 -->
<g id="node14" class="node">
<title>player118</title>
<ellipse fill="none" stroke="#000000" cx="339.3281" cy="-378" rx="49.802" ry="18"/>
<text text-anchor="middle" x="339.3281" y="-373.8" font-family="Times,serif" font-size="14.00" fill="#000000">player118</text>
</g>
<!-- player113&#45;&gt;player118 -->
<g id="edge26" class="edge">
<title>player113-&gt;player118</title>
<path fill="none" stroke="#000000" d="M505.6795,-437.2936C471.8889,-425.2494 420.9957,-407.1092 384.4041,-394.0667"/>
<polygon fill="#000000" stroke="#000000" points="385.5541,-390.761 374.9594,-390.7003 383.2038,-397.3546 385.5541,-390.761"/>
</g>
<!-- player119 -->
<g id="node15" class="node">
<title>player119</title>
<ellipse fill="none" stroke="#000000" cx="222.3281" cy="-378" rx="49.802" ry="18"/>
<text text-anchor="middle" x="222.3281" y="-373.8" font-family="Times,serif" font-size="14.00" fill="#000000">player119</text>
</g>
<!-- player113&#45;&gt;player119 -->
<g id="edge27" class="edge">
<title>player113-&gt;player119</title>
<path fill="none" stroke="#000000" d="M496.2252,-442.0427C443.9526,-432.5037 355.3769,-415.3606 280.3281,-396 276.6943,-395.0626 272.9498,-394.0379 269.1955,-392.9683"/>
<polygon fill="#000000" stroke="#000000" points="269.8857,-389.5231 259.3045,-390.0612 267.9118,-396.2391 269.8857,-389.5231"/>
</g>
<!-- player120 -->
<g id="node16" class="node">
<title>player120</title>
<ellipse fill="none" stroke="#000000" cx="135.3281" cy="-306" rx="49.802" ry="18"/>
<text text-anchor="middle" x="135.3281" y="-301.8" font-family="Times,serif" font-size="14.00" fill="#000000">player120</text>
</g>
<!-- player113&#45;&gt;player120 -->
<g id="edge28" class="edge">
<title>player113-&gt;player120</title>
<path fill="none" stroke="#000000" d="M492.8438,-445.9626C396.4959,-437.5272 188.056,-417.0632 163.3281,-396 145.5884,-380.8894 138.9206,-354.7403 136.4961,-334.5095"/>
<polygon fill="#000000" stroke="#000000" points="139.9563,-333.9134 135.5604,-324.2736 132.9854,-334.5507 139.9563,-333.9134"/>
</g>
<!-- player121 -->
<g id="node17" class="node">
<title>player121</title>
<ellipse fill="none" stroke="#000000" cx="456.3281" cy="-378" rx="49.802" ry="18"/>
<text text-anchor="middle" x="456.3281" y="-373.8" font-family="Times,serif" font-size="14.00" fill="#000000">player121</text>
</g>
<!-- player113&#45;&gt;player121 -->
<g id="edge29" class="edge">
<title>player113-&gt;player121</title>
<path fill="none" stroke="#000000" d="M521.6137,-433.3008C510.3492,-423.7591 496.0527,-411.6491 483.7116,-401.1954"/>
<polygon fill="#000000" stroke="#000000" points="485.8282,-398.4015 475.9355,-394.6087 481.3038,-403.7428 485.8282,-398.4015"/>
</g>
<!-- player118&#45;&gt;player120 -->
<g id="edge35" class="edge">
<title>player118-&gt;player120</title>
<path fill="none" stroke="#000000" d="M300.9573,-366.2717C265.9562,-354.5798 214.4771,-336.4945 178.1616,-323.1833"/>
<polygon fill="#000000" stroke="#000000" points="178.9405,-319.7403 168.3471,-319.5648 176.5189,-326.3081 178.9405,-319.7403"/>
</g>
<!-- player131 -->
<g id="node22" class="node">
<title>player131</title>
<ellipse fill="none" stroke="#000000" cx="252.3281" cy="-306" rx="49.802" ry="18"/>
<text text-anchor="middle" x="252.3281" y="-301.8" font-family="Times,serif" font-size="14.00" fill="#000000">player131</text>
</g>
<!-- player118&#45;&gt;player131 -->
<g id="edge36" class="edge">
<title>player118-&gt;player131</title>
<path fill="none" stroke="#000000" d="M314.2999,-362.0209C301.795,-352.5731 286.8939,-340.4277 274.7648,-329.8622"/>
<polygon fill="#000000" stroke="#000000" points="277.0504,-327.211 267.2476,-323.1915 272.4042,-332.4468 277.0504,-327.211"/>
</g>
<!-- player120&#45;&gt;player118 -->
<g id="edge37" class="edge">
<title>player120-&gt;player118</title>
<path fill="none" stroke="#000000" d="M173.6031,-317.6963C208.6224,-329.3927 260.1943,-347.5104 296.5457,-360.8354"/>
<polygon fill="#000000" stroke="#000000" points="295.7753,-364.2816 306.3687,-364.4574 298.197,-357.7139 295.7753,-364.2816"/>
</g>
<!-- player121&#45;&gt;player116 -->
<g id="edge38" class="edge">
<title>player121-&gt;player116</title>
<path fill="none" stroke="#000000" d="M463.6593,-359.9904C474.9002,-330.0535 494.1167,-268.1779 484.3281,-216 482.6484,-207.0465 479.5291,-197.67 476.1989,-189.2901"/>
<polygon fill="#000000" stroke="#000000" points="479.3864,-187.8414 472.2662,-179.9958 472.9397,-190.5692 479.3864,-187.8414"/>
</g>
<!-- player128 -->
<g id="node23" class="node">
<title>player128</title>
<ellipse fill="none" stroke="#000000" cx="369.3281" cy="-306" rx="49.802" ry="18"/>
<text text-anchor="middle" x="369.3281" y="-301.8" font-family="Times,serif" font-size="14.00" fill="#000000">player128</text>
</g>
<!-- player121&#45;&gt;player128 -->
<g id="edge39" class="edge">
<title>player121-&gt;player128</title>
<path fill="none" stroke="#000000" d="M431.2999,-362.0209C418.795,-352.5731 403.8939,-340.4277 391.7648,-329.8622"/>
<polygon fill="#000000" stroke="#000000" points="394.0504,-327.211 384.2476,-323.1915 389.4042,-332.4468 394.0504,-327.211"/>
</g>
<!-- player129 -->
<g id="node24" class="node">
<title>player129</title>
<ellipse fill="none" stroke="#000000" cx="425.3281" cy="-234" rx="49.802" ry="18"/>
<text text-anchor="middle" x="425.3281" y="-229.8" font-family="Times,serif" font-size="14.00" fill="#000000">player129</text>
</g>
<!-- player121&#45;&gt;player129 -->
<g id="edge40" class="edge">
<title>player121-&gt;player129</title>
<path fill="none" stroke="#000000" d="M447.8208,-360.0535C440.0358,-335.4774 430.2036,-291.1008 425.8965,-262.0974"/>
<polygon fill="#000000" stroke="#000000" points="429.3642,-261.6226 424.5736,-252.1727 422.4256,-262.5475 429.3642,-261.6226"/>
</g>
<!-- player114 -->
<g id="node18" class="node">
<title>player114</title>
<ellipse fill="none" stroke="#000000" cx="1385.3281" cy="-234" rx="49.802" ry="18"/>
<text text-anchor="middle" x="1385.3281" y="-229.8" font-family="Times,serif" font-size="14.00" fill="#000000">player114</text>
</g>
<!-- player114&#45;&gt;player103 -->
<g id="edge31" class="edge">
<title>player114-&gt;player103</title>
<path fill="none" stroke="#000000" d="M1355.3339,-219.6028C1332.1358,-208.4677 1299.8218,-192.957 1274.5692,-180.8357"/>
<polygon fill="#000000" stroke="#000000" points="1275.8001,-177.5443 1265.2703,-176.3723 1272.771,-183.855 1275.8001,-177.5443"/>
</g>
<!-- player115 -->
<g id="node19" class="node">
<title>player115</title>
<ellipse fill="none" stroke="#000000" cx="1502.3281" cy="-162" rx="49.802" ry="18"/>
<text text-anchor="middle" x="1502.3281" y="-157.8" font-family="Times,serif" font-size="14.00" fill="#000000">player115</text>
</g>
<!-- player114&#45;&gt;player115 -->
<g id="edge32" class="edge">
<title>player114-&gt;player115</title>
<path fill="none" stroke="#000000" d="M1410.7153,-218.3771C1427.5804,-207.9986 1449.9202,-194.251 1468.3172,-182.9298"/>
<polygon fill="#000000" stroke="#000000" points="1470.3081,-185.8143 1476.9904,-177.5924 1466.6394,-179.8526 1470.3081,-185.8143"/>
</g>
<!-- player140 -->
<g id="node20" class="node">
<title>player140</title>
<ellipse fill="none" stroke="#000000" cx="1385.3281" cy="-162" rx="49.802" ry="18"/>
<text text-anchor="middle" x="1385.3281" y="-157.8" font-family="Times,serif" font-size="14.00" fill="#000000">player140</text>
</g>
<!-- player114&#45;&gt;player140 -->
<g id="edge33" class="edge">
<title>player114-&gt;player140</title>
<path fill="none" stroke="#000000" d="M1379.3757,-215.8314C1378.6137,-208.0125 1378.3977,-198.6923 1378.7276,-190.0221"/>
<polygon fill="#000000" stroke="#000000" points="1382.2285,-190.1239 1379.4008,-179.9134 1375.244,-189.6587 1382.2285,-190.1239"/>
</g>
<!-- player140&#45;&gt;player114 -->
<g id="edge66" class="edge">
<title>player140-&gt;player114</title>
<path fill="none" stroke="#000000" d="M1391.2554,-179.9134C1392.0292,-187.6993 1392.2572,-197.01 1391.9391,-205.6941"/>
<polygon fill="#000000" stroke="#000000" points="1388.4363,-205.6254 1391.2805,-215.8314 1395.4216,-206.0794 1388.4363,-205.6254"/>
</g>
<!-- player124 -->
<g id="node39" class="node">
<title>player124</title>
<ellipse fill="none" stroke="#000000" cx="463.3281" cy="-18" rx="49.802" ry="18"/>
<text text-anchor="middle" x="463.3281" y="-13.8" font-family="Times,serif" font-size="14.00" fill="#000000">player124</text>
</g>
<!-- player141&#45;&gt;player124 -->
<g id="edge67" class="edge">
<title>player141-&gt;player124</title>
<path fill="none" stroke="#000000" d="M463.3281,-71.8314C463.3281,-64.131 463.3281,-54.9743 463.3281,-46.4166"/>
<polygon fill="#000000" stroke="#000000" points="466.8282,-46.4132 463.3281,-36.4133 459.8282,-46.4133 466.8282,-46.4132"/>
</g>
<!-- player131&#45;&gt;player118 -->
<g id="edge52" class="edge">
<title>player131-&gt;player118</title>
<path fill="none" stroke="#000000" d="M277.1126,-321.7951C289.5689,-331.1948 304.4485,-343.3122 316.6042,-353.8878"/>
<polygon fill="#000000" stroke="#000000" points="314.3404,-356.5583 324.146,-360.5708 318.9829,-351.3192 314.3404,-356.5583"/>
</g>
<!-- player128&#45;&gt;player116 -->
<g id="edge45" class="edge">
<title>player128-&gt;player116</title>
<path fill="none" stroke="#000000" d="M363.4102,-288.0478C358.2208,-268.8228 353.3354,-238.1034 366.3281,-216 376.9395,-197.9477 396.0147,-185.492 414.4585,-177.134"/>
<polygon fill="#000000" stroke="#000000" points="415.8492,-180.3462 423.7088,-173.2415 413.1341,-173.8941 415.8492,-180.3462"/>
</g>
<!-- player128&#45;&gt;player121 -->
<g id="edge46" class="edge">
<title>player128-&gt;player121</title>
<path fill="none" stroke="#000000" d="M394.1126,-321.7951C406.5689,-331.1948 421.4485,-343.3122 433.6042,-353.8878"/>
<polygon fill="#000000" stroke="#000000" points="431.3404,-356.5583 441.146,-360.5708 435.9829,-351.3192 431.3404,-356.5583"/>
</g>
<!-- player128&#45;&gt;player129 -->
<g id="edge47" class="edge">
<title>player128-&gt;player129</title>
<path fill="none" stroke="#000000" d="M377.2551,-288.2022C383.2503,-279.3531 391.5023,-268.5127 399.5398,-258.8583"/>
<polygon fill="#000000" stroke="#000000" points="402.3401,-260.9692 406.1867,-251.0972 397.0235,-256.4157 402.3401,-260.9692"/>
</g>
<!-- player129&#45;&gt;player116 -->
<g id="edge48" class="edge">
<title>player129-&gt;player116</title>
<path fill="none" stroke="#000000" d="M434.7213,-216.2022C439.0603,-207.981 444.3064,-198.041 449.1149,-188.9301"/>
<polygon fill="#000000" stroke="#000000" points="452.3389,-190.3201 453.9112,-179.8425 446.1482,-187.0527 452.3389,-190.3201"/>
</g>
<!-- player129&#45;&gt;player121 -->
<g id="edge49" class="edge">
<title>player129-&gt;player121</title>
<path fill="none" stroke="#000000" d="M433.8807,-252.0896C441.6199,-276.5727 451.3638,-320.5174 455.6954,-349.4713"/>
<polygon fill="#000000" stroke="#000000" points="452.2773,-350.3161 457.0751,-359.7623 459.2152,-349.3859 452.2773,-350.3161"/>
</g>
<!-- player129&#45;&gt;player128 -->
<g id="edge50" class="edge">
<title>player129-&gt;player128</title>
<path fill="none" stroke="#000000" d="M417.3541,-251.8671C411.2879,-260.814 402.9267,-271.7832 394.8157,-281.5024"/>
<polygon fill="#000000" stroke="#000000" points="391.9781,-279.4345 388.1171,-289.3008 397.2881,-283.9956 391.9781,-279.4345"/>
</g>
<!-- player126 -->
<g id="node25" class="node">
<title>player126</title>
<ellipse fill="none" stroke="#000000" cx="269.3281" cy="-234" rx="49.802" ry="18"/>
<text text-anchor="middle" x="269.3281" y="-229.8" font-family="Times,serif" font-size="14.00" fill="#000000">player126</text>
</g>
<!-- player126&#45;&gt;player116 -->
<g id="edge42" class="edge">
<title>player126-&gt;player116</title>
<path fill="none" stroke="#000000" d="M304.46,-220.9613C336.5978,-209.0339 384.2863,-191.3351 419.0261,-178.442"/>
<polygon fill="#000000" stroke="#000000" points="420.3002,-181.7025 428.4575,-174.9417 417.8645,-175.1399 420.3002,-181.7025"/>
</g>
<!-- player127 -->
<g id="node26" class="node">
<title>player127</title>
<ellipse fill="none" stroke="#000000" cx="1473.3281" cy="-306" rx="49.802" ry="18"/>
<text text-anchor="middle" x="1473.3281" y="-301.8" font-family="Times,serif" font-size="14.00" fill="#000000">player127</text>
</g>
<!-- player127&#45;&gt;player114 -->
<g id="edge43" class="edge">
<title>player127-&gt;player114</title>
<path fill="none" stroke="#000000" d="M1452.9179,-289.3008C1441.2559,-279.7591 1426.4548,-267.6491 1413.678,-257.1954"/>
<polygon fill="#000000" stroke="#000000" points="1415.5835,-254.2322 1405.6276,-250.6087 1411.1508,-259.6499 1415.5835,-254.2322"/>
</g>
<!-- player148 -->
<g id="node27" class="node">
<title>player148</title>
<ellipse fill="none" stroke="#000000" cx="1510.3281" cy="-378" rx="49.802" ry="18"/>
<text text-anchor="middle" x="1510.3281" y="-373.8" font-family="Times,serif" font-size="14.00" fill="#000000">player148</text>
</g>
<!-- player127&#45;&gt;player148 -->
<g id="edge44" class="edge">
<title>player127-&gt;player148</title>
<path fill="none" stroke="#000000" d="M1488.1559,-323.4177C1493.205,-331.5991 1498.5475,-341.5445 1502.8674,-350.6932"/>
<polygon fill="#000000" stroke="#000000" points="1499.6734,-352.1247 1506.9438,-359.8314 1506.0662,-349.2729 1499.6734,-352.1247"/>
</g>
<!-- player148&#45;&gt;player127 -->
<g id="edge73" class="edge">
<title>player148-&gt;player127</title>
<path fill="none" stroke="#000000" d="M1495.4932,-360.5708C1490.4232,-352.3544 1485.0581,-342.3608 1480.73,-333.1821"/>
<polygon fill="#000000" stroke="#000000" points="1483.9158,-331.7323 1476.6508,-324.0206 1477.521,-334.5796 1483.9158,-331.7323"/>
</g>
<!-- player136 -->
<g id="node33" class="node">
<title>player136</title>
<ellipse fill="none" stroke="#000000" cx="1707.3281" cy="-306" rx="49.802" ry="18"/>
<text text-anchor="middle" x="1707.3281" y="-301.8" font-family="Times,serif" font-size="14.00" fill="#000000">player136</text>
</g>
<!-- player148&#45;&gt;player136 -->
<g id="edge74" class="edge">
<title>player148-&gt;player136</title>
<path fill="none" stroke="#000000" d="M1542.8537,-364.1177C1574.8151,-351.8288 1623.7411,-333.9259 1659.9875,-321.2434"/>
<polygon fill="#000000" stroke="#000000" points="1661.5545,-324.4042 1669.85,-317.8137 1659.2552,-317.7926 1661.5545,-324.4042"/>
</g>
<!-- player137 -->
<g id="node35" class="node">
<title>player137</title>
<ellipse fill="none" stroke="#000000" cx="1510.3281" cy="-450" rx="49.802" ry="18"/>
<text text-anchor="middle" x="1510.3281" y="-445.8" font-family="Times,serif" font-size="14.00" fill="#000000">player137</text>
</g>
<!-- player148&#45;&gt;player137 -->
<g id="edge75" class="edge">
<title>player148-&gt;player137</title>
<path fill="none" stroke="#000000" d="M1516.2554,-395.9134C1517.0292,-403.6993 1517.2572,-413.01 1516.9391,-421.6941"/>
<polygon fill="#000000" stroke="#000000" points="1513.4363,-421.6254 1516.2805,-431.8314 1520.4216,-422.0794 1513.4363,-421.6254"/>
</g>
<!-- player130 -->
<g id="node28" class="node">
<title>player130</title>
<ellipse fill="none" stroke="#000000" cx="1744.3281" cy="-522" rx="49.802" ry="18"/>
<text text-anchor="middle" x="1744.3281" y="-517.8" font-family="Times,serif" font-size="14.00" fill="#000000">player130</text>
</g>
<!-- player149 -->
<g id="node29" class="node">
<title>player149</title>
<ellipse fill="none" stroke="#000000" cx="1744.3281" cy="-450" rx="49.802" ry="18"/>
<text text-anchor="middle" x="1744.3281" y="-445.8" font-family="Times,serif" font-size="14.00" fill="#000000">player149</text>
</g>
<!-- player130&#45;&gt;player149 -->
<g id="edge51" class="edge">
<title>player130-&gt;player149</title>
<path fill="none" stroke="#000000" d="M1738.3757,-503.8314C1737.6137,-496.0125 1737.3977,-486.6923 1737.7276,-478.0221"/>
<polygon fill="#000000" stroke="#000000" points="1741.2285,-478.1239 1738.4008,-467.9134 1734.244,-477.6587 1741.2285,-478.1239"/>
</g>
<!-- player149&#45;&gt;player130 -->
<g id="edge76" class="edge">
<title>player149-&gt;player130</title>
<path fill="none" stroke="#000000" d="M1750.2554,-467.9134C1751.0292,-475.6993 1751.2572,-485.01 1750.9391,-493.6941"/>
<polygon fill="#000000" stroke="#000000" points="1747.4363,-493.6254 1750.2805,-503.8314 1754.4216,-494.0794 1747.4363,-493.6254"/>
</g>
<!-- player133 -->
<g id="node30" class="node">
<title>player133</title>
<ellipse fill="none" stroke="#000000" cx="1315.3281" cy="-378" rx="49.802" ry="18"/>
<text text-anchor="middle" x="1315.3281" y="-373.8" font-family="Times,serif" font-size="14.00" fill="#000000">player133</text>
</g>
<!-- player133&#45;&gt;player114 -->
<g id="edge53" class="edge">
<title>player133-&gt;player114</title>
<path fill="none" stroke="#000000" d="M1340.5739,-362.4151C1353.5428,-352.9826 1368.2751,-339.7391 1376.3281,-324 1386.0143,-305.0689 1387.9712,-280.9817 1387.6657,-262.491"/>
<polygon fill="#000000" stroke="#000000" points="1391.1565,-262.1865 1387.2657,-252.3319 1384.1619,-262.4619 1391.1565,-262.1865"/>
</g>
<!-- player144 -->
<g id="node31" class="node">
<title>player144</title>
<ellipse fill="none" stroke="#000000" cx="1200.3281" cy="-306" rx="49.802" ry="18"/>
<text text-anchor="middle" x="1200.3281" y="-301.8" font-family="Times,serif" font-size="14.00" fill="#000000">player144</text>
</g>
<!-- player133&#45;&gt;player144 -->
<g id="edge54" class="edge">
<title>player133-&gt;player144</title>
<path fill="none" stroke="#000000" d="M1290.3748,-362.3771C1273.798,-351.9986 1251.8401,-338.251 1233.7576,-326.9298"/>
<polygon fill="#000000" stroke="#000000" points="1235.5659,-323.9325 1225.2327,-321.5924 1231.8512,-329.8656 1235.5659,-323.9325"/>
</g>
<!-- player144&#45;&gt;player100 -->
<g id="edge70" class="edge">
<title>player144-&gt;player100</title>
<path fill="none" stroke="#000000" d="M1165.1961,-292.9613C1133.0583,-281.0339 1085.3699,-263.3351 1050.63,-250.442"/>
<polygon fill="#000000" stroke="#000000" points="1051.7916,-247.1399 1041.1987,-246.9417 1049.356,-253.7025 1051.7916,-247.1399"/>
</g>
<!-- player145 -->
<g id="node43" class="node">
<title>player145</title>
<ellipse fill="none" stroke="#000000" cx="1200.3281" cy="-234" rx="49.802" ry="18"/>
<text text-anchor="middle" x="1200.3281" y="-229.8" font-family="Times,serif" font-size="14.00" fill="#000000">player145</text>
</g>
<!-- player144&#45;&gt;player145 -->
<g id="edge71" class="edge">
<title>player144-&gt;player145</title>
<path fill="none" stroke="#000000" d="M1200.3281,-287.8314C1200.3281,-280.131 1200.3281,-270.9743 1200.3281,-262.4166"/>
<polygon fill="#000000" stroke="#000000" points="1203.8282,-262.4132 1200.3281,-252.4133 1196.8282,-262.4133 1203.8282,-262.4132"/>
</g>
<!-- player135 -->
<g id="node32" class="node">
<title>player135</title>
<ellipse fill="none" stroke="#000000" cx="1736.3281" cy="-162" rx="49.802" ry="18"/>
<text text-anchor="middle" x="1736.3281" y="-157.8" font-family="Times,serif" font-size="14.00" fill="#000000">player135</text>
</g>
<!-- player135&#45;&gt;player102 -->
<g id="edge55" class="edge">
<title>player135-&gt;player102</title>
<path fill="none" stroke="#000000" d="M1700.117,-149.4987C1692.9639,-147.3891 1685.462,-145.4247 1678.3281,-144 1492.1354,-106.8152 1266.9003,-95.1088 1161.3658,-91.5239"/>
<polygon fill="#000000" stroke="#000000" points="1161.3362,-88.0211 1151.2271,-91.1921 1161.1072,-95.0174 1161.3362,-88.0211"/>
</g>
<!-- player136&#45;&gt;player148 -->
<g id="edge59" class="edge">
<title>player136-&gt;player148</title>
<path fill="none" stroke="#000000" d="M1675.138,-319.7533C1643.2569,-332.0176 1594.2657,-349.9478 1557.9171,-362.6696"/>
<polygon fill="#000000" stroke="#000000" points="1556.3199,-359.5194 1548.0249,-366.1107 1558.6198,-366.1309 1556.3199,-359.5194"/>
</g>
<!-- player117 -->
<g id="node34" class="node">
<title>player117</title>
<ellipse fill="none" stroke="#000000" cx="1502.3281" cy="-234" rx="49.802" ry="18"/>
<text text-anchor="middle" x="1502.3281" y="-229.8" font-family="Times,serif" font-size="14.00" fill="#000000">player117</text>
</g>
<!-- player136&#45;&gt;player117 -->
<g id="edge56" class="edge">
<title>player136-&gt;player117</title>
<path fill="none" stroke="#000000" d="M1671.6198,-293.4586C1637.2906,-281.4015 1585.2569,-263.1262 1547.9426,-250.0207"/>
<polygon fill="#000000" stroke="#000000" points="1548.9098,-246.6509 1538.315,-246.6393 1546.5901,-253.2554 1548.9098,-246.6509"/>
</g>
<!-- player136&#45;&gt;player137 -->
<g id="edge57" class="edge">
<title>player136-&gt;player137</title>
<path fill="none" stroke="#000000" d="M1688.9026,-322.7734C1655.8499,-348.9884 1586.6946,-399.6495 1544.7108,-428.5054"/>
<polygon fill="#000000" stroke="#000000" points="1542.4789,-425.791 1536.1871,-434.3154 1546.4215,-431.5751 1542.4789,-425.791"/>
</g>
<!-- player147 -->
<g id="node36" class="node">
<title>player147</title>
<ellipse fill="none" stroke="#000000" cx="1736.3281" cy="-234" rx="49.802" ry="18"/>
<text text-anchor="middle" x="1736.3281" y="-229.8" font-family="Times,serif" font-size="14.00" fill="#000000">player147</text>
</g>
<!-- player136&#45;&gt;player147 -->
<g id="edge58" class="edge">
<title>player136-&gt;player147</title>
<path fill="none" stroke="#000000" d="M1708.6936,-287.8314C1711.2236,-279.5451 1715.0459,-269.5727 1719.1292,-260.4748"/>
<polygon fill="#000000" stroke="#000000" points="1722.3023,-261.9518 1723.4356,-251.4177 1715.9806,-258.9459 1722.3023,-261.9518"/>
</g>
<!-- player137&#45;&gt;player129 -->
<g id="edge60" class="edge">
<title>player137-&gt;player129</title>
<path fill="none" stroke="#000000" d="M1460.6426,-448.2594C1292.1511,-442.1542 748.8202,-420.7397 674.3281,-396 583.7456,-365.9165 493.9969,-294.6623 451.2184,-257.4881"/>
<polygon fill="#000000" stroke="#000000" points="453.3672,-254.717 443.545,-250.7454 448.7466,-259.9754 453.3672,-254.717"/>
</g>
<!-- player137&#45;&gt;player148 -->
<g id="edge62" class="edge">
<title>player137-&gt;player148</title>
<path fill="none" stroke="#000000" d="M1504.3757,-431.8314C1503.6137,-424.0125 1503.3977,-414.6923 1503.7276,-406.0221"/>
<polygon fill="#000000" stroke="#000000" points="1507.2285,-406.1239 1504.4008,-395.9134 1500.244,-405.6587 1507.2285,-406.1239"/>
</g>
<!-- player137&#45;&gt;player136 -->
<g id="edge61" class="edge">
<title>player137-&gt;player136</title>
<path fill="none" stroke="#000000" d="M1528.7877,-433.1995C1561.8894,-406.9485 1631.1251,-356.2314 1673.081,-327.4014"/>
<polygon fill="#000000" stroke="#000000" points="1675.3042,-330.1218 1681.597,-321.5982 1671.3623,-324.3372 1675.3042,-330.1218"/>
</g>
<!-- player147&#45;&gt;player136 -->
<g id="edge72" class="edge">
<title>player147-&gt;player136</title>
<path fill="none" stroke="#000000" d="M1735.0077,-252.0206C1732.4829,-260.3203 1728.649,-270.3355 1724.5501,-279.4738"/>
<polygon fill="#000000" stroke="#000000" points="1721.358,-278.0366 1720.2264,-288.5708 1727.6802,-281.0415 1721.358,-278.0366"/>
</g>
<!-- player138 -->
<g id="node37" class="node">
<title>player138</title>
<ellipse fill="none" stroke="#000000" cx="1619.3281" cy="-234" rx="49.802" ry="18"/>
<text text-anchor="middle" x="1619.3281" y="-229.8" font-family="Times,serif" font-size="14.00" fill="#000000">player138</text>
</g>
<!-- player138&#45;&gt;player115 -->
<g id="edge63" class="edge">
<title>player138-&gt;player115</title>
<path fill="none" stroke="#000000" d="M1593.9408,-218.3771C1577.0757,-207.9986 1554.7359,-194.251 1536.339,-182.9298"/>
<polygon fill="#000000" stroke="#000000" points="1538.0167,-179.8526 1527.6658,-177.5924 1534.348,-185.8143 1538.0167,-179.8526"/>
</g>
<!-- player139 -->
<g id="node38" class="node">
<title>player139</title>
<ellipse fill="none" stroke="#000000" cx="1619.3281" cy="-162" rx="49.802" ry="18"/>
<text text-anchor="middle" x="1619.3281" y="-157.8" font-family="Times,serif" font-size="14.00" fill="#000000">player139</text>
</g>
<!-- player138&#45;&gt;player139 -->
<g id="edge64" class="edge">
<title>player138-&gt;player139</title>
<path fill="none" stroke="#000000" d="M1613.3757,-215.8314C1612.6137,-208.0125 1612.3977,-198.6923 1612.7276,-190.0221"/>
<polygon fill="#000000" stroke="#000000" points="1616.2285,-190.1239 1613.4008,-179.9134 1609.244,-189.6587 1616.2285,-190.1239"/>
</g>
<!-- player139&#45;&gt;player138 -->
<g id="edge65" class="edge">
<title>player139-&gt;player138</title>
<path fill="none" stroke="#000000" d="M1625.2554,-179.9134C1626.0292,-187.6993 1626.2572,-197.01 1625.9391,-205.6941"/>
<polygon fill="#000000" stroke="#000000" points="1622.4363,-205.6254 1625.2805,-215.8314 1629.4216,-206.0794 1622.4363,-205.6254"/>
</g>
<!-- player142 -->
<g id="node40" class="node">
<title>player142</title>
<ellipse fill="none" stroke="#000000" cx="1590.3281" cy="-306" rx="49.802" ry="18"/>
<text text-anchor="middle" x="1590.3281" y="-301.8" font-family="Times,serif" font-size="14.00" fill="#000000">player142</text>
</g>
<!-- player142&#45;&gt;player117 -->
<g id="edge68" class="edge">
<title>player142-&gt;player117</title>
<path fill="none" stroke="#000000" d="M1569.9179,-289.3008C1558.2559,-279.7591 1543.4548,-267.6491 1530.678,-257.1954"/>
<polygon fill="#000000" stroke="#000000" points="1532.5835,-254.2322 1522.6276,-250.6087 1528.1508,-259.6499 1532.5835,-254.2322"/>
</g>
<!-- player143 -->
<g id="node41" class="node">
<title>player143</title>
<ellipse fill="none" stroke="#000000" cx="1627.3281" cy="-450" rx="49.802" ry="18"/>
<text text-anchor="middle" x="1627.3281" y="-445.8" font-family="Times,serif" font-size="14.00" fill="#000000">player143</text>
</g>
<!-- player150 -->
<g id="node42" class="node">
<title>player150</title>
<ellipse fill="none" stroke="#000000" cx="1569.3281" cy="-522" rx="49.802" ry="18"/>
<text text-anchor="middle" x="1569.3281" y="-517.8" font-family="Times,serif" font-size="14.00" fill="#000000">player150</text>
</g>
<!-- player143&#45;&gt;player150 -->
<g id="edge69" class="edge">
<title>player143-&gt;player150</title>
<path fill="none" stroke="#000000" d="M1618.8578,-467.8671C1612.4799,-476.9035 1603.7036,-488.0027 1595.2449,-497.7936"/>
<polygon fill="#000000" stroke="#000000" points="1592.602,-495.4986 1588.581,-505.3008 1597.8371,-500.1456 1592.602,-495.4986"/>
</g>
<!-- player150&#45;&gt;player120 -->
<g id="edge77" class="edge">
<title>player150-&gt;player120</title>
<path fill="none" stroke="#000000" d="M1519.6283,-521.3125C1365.361,-518.7969 881.1302,-508.028 482.3281,-468 269.873,-446.6758 146.5387,-557.9022 7.3281,-396 -3.1035,-383.8681 -1.5176,-373.3324 7.3281,-360 23.3492,-335.8526 52.5273,-322.4767 78.983,-315.0806"/>
<polygon fill="#000000" stroke="#000000" points="80.1358,-318.3985 88.9561,-312.5288 78.4006,-311.617 80.1358,-318.3985"/>
</g>
<!-- player150&#45;&gt;player137 -->
<g id="edge78" class="edge">
<title>player150-&gt;player137</title>
<path fill="none" stroke="#000000" d="M1555.0458,-504.5708C1547.7987,-495.7269 1538.8643,-484.8239 1530.8916,-475.0945"/>
<polygon fill="#000000" stroke="#000000" points="1533.5243,-472.7851 1524.4788,-467.2687 1528.1099,-477.2219 1533.5243,-472.7851"/>
</g>
<!-- player150&#45;&gt;player143 -->
<g id="edge79" class="edge">
<title>player150-&gt;player143</title>
<path fill="none" stroke="#000000" d="M1577.7494,-504.2022C1584.1456,-495.1332 1592.9702,-483.9726 1601.4681,-474.1407"/>
<polygon fill="#000000" stroke="#000000" points="1604.1366,-476.4068 1608.1606,-466.6058 1598.9029,-471.7582 1604.1366,-476.4068"/>
</g>
</g>
</svg>